Motion_sv03_j
version=1
nRows=9
nColumns=43
inDegrees=yes
endheader
time	pelvis_tilt	pelvis_list	pelvis_rotation	pelvis_tx	pelvis_ty	pelvis_tz	hip_flexion_r	hip_adduction_r	hip_rotation_r	knee_angle_r	ankle_angle_r	subtalar_angle_r	mtp_angle_r	hip_flexion_l	hip_adduction_l	hip_rotation_l	knee_angle_l	ankle_angle_l	subtalar_angle_l	mtp_angle_l	lumbar_extension	lumbar_bending	lumbar_rotation	neck_flexion	neck_lateral_bending	neck_rotation	arm_flex_r	arm_add_r	arm_rot_r	elbow_flex_r	pro_sup_r	wrist_flex_r	wrist_dev_r	hand_finger_flex_r	arm_flex_l	arm_add_l	arm_rot_l	elbow_flex_l	pro_sup_l	wrist_flex_l	wrist_dev_l	hand_finger_flex_l
      0.00250000	     -1.72906387	     -2.45274341	    -91.84570122	     -0.06835045	      0.95559822	      0.20499845	     -9.57228385	     -1.50106270	    -13.10498754	      1.20057569	     10.03706093	     16.70243895	     -1.32509087	    -10.82980870	     -7.79865823	    -23.39531727	      0.91342088	      3.69434242	     35.54415991	      7.02014720	     -7.88604515	      1.68664196	      0.07813446	      4.06569378	      5.14649090	      2.40839951	    -30.14487746	    -64.75775241	   -112.56634792	     47.08760631	     76.86997660	     -2.03274375	      9.70603184	    -26.15671344	    -52.50274490	    -64.79039868	   -122.74673978	     42.96770236	     76.84886396	    -15.32611097	     16.58330864	    -16.35867315
      0.00500000	     -1.72866730	     -2.45263365	    -91.84531023	     -0.06834441	      0.95557269	      0.20501794	     -9.57240553	     -1.50082542	    -13.10506145	      1.20034476	     10.03710993	     16.70244629	     -1.32509041	    -10.82945330	     -7.79857313	    -23.39534005	      0.91338677	      3.69438886	     35.54413711	      7.02015979	     -7.88641957	      1.68706976	      0.07836127	      4.06583119	      5.14641972	      2.40830420	    -30.14488651	    -64.75774556	   -112.56602491	     47.08735155	     76.87008852	     -2.03262059	      9.70613666	    -26.15690733	    -52.50277151	    -64.79060217	   -122.74677217	     42.96777226	     76.84873167	    -15.32623384	     16.58331638	    -16.35882125
      0.00750000	     -1.72831042	     -2.45243037	    -91.84488293	     -0.06834039	      0.95555091	      0.20504064	     -9.57273966	     -1.50055755	    -13.10515559	      1.20002272	     10.03716813	     16.70244668	     -1.32508732	    -10.82896221	     -7.79829314	    -23.39539189	      0.91325710	      3.69444033	     35.54411342	      7.02017458	     -7.88679773	      1.68756732	      0.07869612	      4.06598094	      5.14634124	      2.40820076	    -30.14486485	    -64.75766873	   -112.56565553	     47.08706290	     76.87019606	     -2.03248964	      9.70624767	    -26.15709841	    -52.50283324	    -64.79087842	   -122.74676980	     42.96790568	     76.84860211	    -15.32633341	     16.58331078	    -16.35896084
      0.01000000	     -1.72802039	     -2.45221677	    -91.84443887	     -0.06833966	      0.95553492	      0.20507075	     -9.57326332	     -1.50026498	    -13.10526696	      1.19962177	     10.03723448	     16.70244176	     -1.32508192	    -10.82826461	     -7.79783155	    -23.39547888	      0.91304115	      3.69449567	     35.54408797	      7.02019123	     -7.88719098	      1.68810660	      0.07912634	      4.06614447	      5.14625722	      2.40808954	    -30.14480944	    -64.75755118	   -112.56525069	     47.08674456	     76.87029994	     -2.03235240	      9.70636447	    -26.15728702	    -52.50292664	    -64.79123305	   -122.74673163	     42.96810123	     76.84847466	    -15.32641011	     16.58329219	    -16.35909230
      0.01250000	     -1.72779751	     -2.45204879	    -91.84401280	     -0.06834301	      0.95552541	      0.20510879	     -9.57398380	     -1.49994416	    -13.10539249	      1.19913913	     10.03730599	     16.70243362	     -1.32507480	    -10.82733054	     -7.79720630	    -23.39560752	      0.91273162	      3.69455184	     35.54405977	      7.02020932	     -7.88757484	      1.68867071	      0.07962439	      4.06632490	      5.14616818	      2.40797127	    -30.14471776	    -64.75740897	   -112.56482597	     47.08639475	     76.87040102	     -2.03221177	      9.70648763	    -26.15747391	    -52.50304723	    -64.79166573	   -122.74665932	     42.96835439	     76.84834860	    -15.32646539	     16.58326072	    -16.35921635
      0.01500000	     -1.72768756	     -2.45199153	    -91.84330472	     -0.06834769	      0.95552174	      0.20517483	     -9.57695468	     -1.49891426	    -13.10580463	      1.19737907	     10.03752195	     16.70240312	     -1.32504955	    -10.82441715	     -7.79511997	    -23.39613497	      0.91135217	      3.69470284	     35.54395710	      7.02026645	     -7.88765545	      1.68990064	      0.08078531	      4.06695347	      5.14588530	      2.40760864	    -30.14440670	    -64.75678433	   -112.56368591	     47.08525842	     76.87069325	     -2.03182659	      9.70686084	    -26.15802282	    -52.50344705	    -64.79295694	   -122.74639631	     42.96915345	     76.84798439	    -15.32658628	     16.58314282	    -16.35956294
      0.01750000	     -1.72772091	     -2.45201838	    -91.84308571	     -0.06835351	      0.95552467	      0.20520392	     -9.57804331	     -1.49858318	    -13.10595904	      1.19676017	     10.03759959	     16.70239015	     -1.32504024	    -10.82332725	     -7.79438060	    -23.39636948	      0.91073913	      3.69474922	     35.54391109	      7.02028711	     -7.88766619	      1.69025092	      0.08118837	      4.06718451	      5.14578673	      2.40747733	    -30.14426385	    -64.75659761	   -112.56330513	     47.08484920	     76.87079223	     -2.03169564	      9.70699280	    -26.15821051	    -52.50359787	    -64.79346535	   -122.74626928	     42.96946969	     76.84785888	    -15.32660880	     16.58309387	    -16.35967567
      0.02000000	     -1.68682400	     -2.53178807	    -91.78319581	     -0.06859660	      0.95569666	      0.20497831	     -9.65788962	     -1.49731930	    -13.23517686	      1.17657986	     10.11463904	     16.68862513	     -1.31878897	    -10.63809984	     -7.83407119	    -23.60379729	      0.40561497	      3.75283547	     35.50191258	      7.03936462	     -7.97316542	      1.58675522	      0.07287911	      4.11136541	      5.12462058	      2.30445190	    -30.09074884	    -64.69844320	   -112.44164038	     46.94863731	     76.93877483	     -1.96629756	      9.74552978	    -26.29024521	    -52.56884658	    -64.90386203	   -122.67016099	     43.04971179	     76.76519364	    -15.35724065	     16.57757481	    -16.43981588
      0.02250000	     -1.68648393	     -2.53113912	    -91.78301112	     -0.06860919	      0.95570507	      0.20503685	     -9.65819950	     -1.49752031	    -13.23526381	      1.17636038	     10.11464464	     16.68864262	     -1.31879399	    -10.63770701	     -7.83417583	    -23.60378978	      0.40546689	      3.75304413	     35.50203547	      7.03939988	     -7.97372609	      1.58691166	      0.07314023	      4.11135087	      5.12479222	      2.30429467	    -30.09061185	    -64.69888173	   -112.44181319	     46.94902201	     76.93884854	     -1.96625147	      9.74539033	    -26.29044943	    -52.56889045	    -64.90365808	   -122.67027561	     43.04964364	     76.76506968	    -15.35737280	     16.57758427	    -16.43995448
